<svg xmlns="http://www.w3.org/2000/svg" viewBox="0 0 91.71 27.6"><rect width="91.71" height="27.6" rx="7.29" fill="#a6a6a6"/><rect x="0.67" y="0.6" width="90.37" height="26.39" rx="6.53"/><path d="M18.39,13.15a3.9,3.9,0,0,1,1.87-3.3,4,4,0,0,0-3.17-1.72c-1.34-.14-2.63.8-3.31.8S12,8.15,10.92,8.17a4.22,4.22,0,0,0-3.56,2.17C5.83,13,7,16.91,8.44,19.06c.74,1.05,1.6,2.23,2.73,2.18s1.51-.7,2.84-.7,1.7.7,2.85.68,1.93-1.06,2.64-2.12a8.67,8.67,0,0,0,1.21-2.46A3.78,3.78,0,0,1,18.39,13.15Z" fill="#fff"/><path d="M16.22,6.72A3.87,3.87,0,0,0,17.1,4a3.93,3.93,0,0,0-2.55,1.32,3.66,3.66,0,0,0-.9,2.67A3.27,3.27,0,0,0,16.22,6.72Z" fill="#fff"/><path d="M31.71,15.65H28l-.9,2.67h-1.6L29,8.45h1.65l3.56,9.87H32.61Zm-3.37-1.23h3l-1.47-4.33h0Z" fill="#fff"/><path d="M41.92,14.72c0,2.24-1.19,3.67-3,3.67a2.44,2.44,0,0,1-2.26-1.25h0V20.7H35.15V11.13h1.43v1.19h0a2.56,2.56,0,0,1,2.29-1.27C40.72,11.05,41.92,12.49,41.92,14.72Zm-1.51,0c0-1.45-.76-2.41-1.9-2.41s-1.89,1-1.89,2.41.76,2.42,1.89,2.42S40.41,16.19,40.41,14.72Z" fill="#fff"/><path d="M49.84,14.72c0,2.24-1.2,3.67-3,3.67a2.44,2.44,0,0,1-2.26-1.25h0V20.7H43.07V11.13h1.42v1.19h0a2.56,2.56,0,0,1,2.29-1.27C48.64,11.05,49.84,12.49,49.84,14.72Zm-1.52,0c0-1.45-.75-2.41-1.9-2.41s-1.88,1-1.88,2.41.75,2.42,1.88,2.42,1.9-.95,1.9-2.42Z" fill="#fff"/><path d="M55.07,15.57c.11,1,1.06,1.62,2.36,1.62s2.14-.64,2.14-1.52-.54-1.23-1.82-1.54l-1.28-.31c-1.81-.44-2.65-1.28-2.65-2.66,0-1.7,1.48-2.87,3.59-2.87S60.92,9.46,61,11.16H59.48c-.09-1-.9-1.58-2.09-1.58s-2,.6-2,1.48c0,.7.52,1.11,1.79,1.42l1.08.27c2,.48,2.87,1.29,2.87,2.73,0,1.85-1.47,3-3.81,3s-3.66-1.13-3.76-2.91Z" fill="#fff"/><path d="M64.31,9.42v1.71h1.37V12.3H64.31v4c0,.62.28.9.88.9l.49,0v1.16a4.62,4.62,0,0,1-.82.07c-1.46,0-2-.55-2-1.94V12.3h-1V11.13h1V9.42Z" fill="#fff"/><path d="M66.47,14.72c0-2.26,1.34-3.68,3.42-3.68s3.41,1.42,3.41,3.68S72,18.41,69.89,18.41,66.47,17,66.47,14.72Zm5.32,0c0-1.55-.71-2.47-1.9-2.47S68,13.18,68,14.72s.71,2.47,1.91,2.47,1.9-.91,1.9-2.47Z" fill="#fff"/><path d="M74.51,11.13h1.41v1.22h0a1.7,1.7,0,0,1,1.73-1.3,2.07,2.07,0,0,1,.5.06v1.38a1.85,1.85,0,0,0-.66-.09A1.49,1.49,0,0,0,76,13.82a1.69,1.69,0,0,0,0,.23v4.27H74.51Z" fill="#fff"/><path d="M85,16.21a2.89,2.89,0,0,1-3.1,2.2c-2.09,0-3.39-1.4-3.39-3.65S79.82,11,81.84,11s3.24,1.36,3.24,3.55v.5H80v.09a1.87,1.87,0,0,0,1.7,2h.24a1.65,1.65,0,0,0,1.66-1Zm-5-2.15H83.6A1.72,1.72,0,0,0,82,12.24h-.13A1.82,1.82,0,0,0,80,14Z" fill="#fff"/></svg>