<svg xmlns="http://www.w3.org/2000/svg" viewBox="0 0 91.71 27.6"><rect width="91.71" height="27.6" rx="7.29" fill="#a6a6a6"/><rect x="0.67" y="0.6" width="90.37" height="26.39" rx="6.53"/><path d="M45,12.23a3,3,0,1,0,3,3A3,3,0,0,0,45,12.23Zm0,4.83a1.73,1.73,0,0,1-1.7-1.82,1.7,1.7,0,1,1,3.4,0A1.74,1.74,0,0,1,45,17.06Zm-6.6-4.83a3,3,0,1,0,3,3A3,3,0,0,0,38.38,12.23Zm0,4.83a1.74,1.74,0,0,1-1.7-1.82,1.7,1.7,0,1,1,3.4,0A1.74,1.74,0,0,1,38.38,17.06Zm-7.85-3.91v1.28h3.06A2.7,2.7,0,0,1,32.9,16a3.16,3.16,0,0,1-2.37.93,3.4,3.4,0,0,1,0-6.8,3.24,3.24,0,0,1,2.31.92l.9-.9A4.41,4.41,0,0,0,30.53,8.9a4.74,4.74,0,0,0-4.74,4.67,4.74,4.74,0,0,0,4.74,4.68A4.13,4.13,0,0,0,34.9,14a4.74,4.74,0,0,0-.06-.8Zm32.09,1A2.79,2.79,0,0,0,60,12.23a2.86,2.86,0,0,0-2.84,3,3,3,0,0,0,3,3,3,3,0,0,0,2.51-1.33l-1-.69a1.72,1.72,0,0,1-1.48.83,1.53,1.53,0,0,1-1.46-.91l4-1.66Zm-4.11,1a1.66,1.66,0,0,1,1.58-1.76,1.17,1.17,0,0,1,1.12.64Zm-3.27,2.92h1.32V9.22H55.24ZM53.07,12.9h0a2.11,2.11,0,0,0-1.59-.67,3,3,0,0,0,0,6A2.08,2.08,0,0,0,53,17.57h0V18c0,1.15-.61,1.77-1.61,1.77A1.65,1.65,0,0,1,50,18.7l-1.16.48A2.88,2.88,0,0,0,51.46,21c1.55,0,2.87-.92,2.87-3.14V12.41H53.07Zm-1.52,4.16a1.72,1.72,0,0,1-1.67-1.81,1.74,1.74,0,0,1,1.67-1.84,1.7,1.7,0,0,1,1.61,1.84A1.68,1.68,0,0,1,51.55,17.06ZM68.82,9.22H65.65v8.85H67V14.71h1.84a2.75,2.75,0,1,0,0-5.49Zm0,4.26H67v-3h1.88a1.52,1.52,0,1,1,0,3ZM77,12.21a2.48,2.48,0,0,0-2.36,1.36l1.18.49a1.24,1.24,0,0,1,1.2-.65,1.27,1.27,0,0,1,1.39,1.14v.09a2.84,2.84,0,0,0-1.37-.34c-1.27,0-2.56.69-2.56,2a2.05,2.05,0,0,0,2.2,1.95,1.87,1.87,0,0,0,1.69-.87h0v.68h1.28V14.66A2.43,2.43,0,0,0,77,12.21Zm-.16,4.85c-.43,0-1-.21-1-.75s.75-.94,1.4-.94a2.33,2.33,0,0,1,1.2.29A1.59,1.59,0,0,1,76.86,17.06Zm7.5-4.66-1.52,3.84h0L81.22,12.4H79.8l2.36,5.37-1.35,3h1.38l3.64-8.35ZM72.45,18.07h1.33V9.22H72.45Z" fill="#fff"/><path d="M6.07,21.34a2,2,0,0,0,1.77,1.12,2,2,0,0,0,1-.27h0L16.7,17.7l-3.49-3.44Z" fill="#fff"/><path d="M20.52,12.11h0l-3.25-1.86-3.62,3.58,3.61,3.55,3.25-1.86a1.93,1.93,0,0,0,0-3.41Z" fill="#fff"/><path d="M5.89,7V20.52a.53.53,0,0,0,0,.13l6.88-6.82Z" fill="#fff"/><path d="M8.85,5.42a1.92,1.92,0,0,0-1-.28A2,2,0,0,0,6,6.33l7,6.91.15.16h0l3.49-3.46Z" fill="#fff"/></svg>