<svg xmlns="http://www.w3.org/2000/svg" viewBox="0 0 178.8 178.8"><path d="M153.37,46.12A23.12,23.12,0,1,0,132.68,20.8,23.11,23.11,0,0,0,153.37,46.12Z" fill="#092437"/><path d="M142.29,132.8c-.85-.24-1.71-.47-2.57-.67-18-4-42.07-22.31-51.28-39.48,15.25,9.47,38.45,33.69,54.33,11.36a21.15,21.15,0,0,0-5.6-29.39S33.72,3.13,26,.72C14.78-2.84-.06,7.32,0,20.23c-.14,6.32,1.56,20.29,2.6,25.7C16.42,118,74.22,173.53,156.26,178.76a21.28,21.28,0,0,0,20.08-10.93l.2-.36a20.78,20.78,0,0,0,1.72-14.18C174.19,135.53,160.06,138,142.29,132.8Z" fill="#092437"/></svg>