<svg xmlns="http://www.w3.org/2000/svg" viewBox="0 0 882.18 321.74"><rect width="321.74" height="321.74" rx="64.1" fill="#fd5e02"/><path d="M237.39,109.09A27.65,27.65,0,1,0,212.65,78.8,27.66,27.66,0,0,0,237.39,109.09Z" fill="#fff"/><path d="M224.14,212.79c-1-.29-2-.57-3.08-.8-21.57-4.83-50.32-26.69-61.34-47.24,18.24,11.34,46,40.31,65,13.6a25.31,25.31,0,0,0-6.7-35.16S94.25,57.66,85.07,54.77C71.6,50.52,53.85,62.68,53.92,78.12c-.16,7.56,1.87,24.27,3.12,30.75,16.52,86.26,85.67,152.64,183.81,158.9a25.45,25.45,0,0,0,24-13.07c.08-.15.16-.29.23-.44a24.76,24.76,0,0,0,2.06-17C262.3,216.05,245.4,219,224.14,212.79Z" fill="#fff"/><path d="M402.89,210.29h29c28.29,0,46.92-11.16,46.92-34.83s-18.63-34.84-46.92-34.84h-66.5v94.16h37.54Zm0-43.85h25.88c7,0,12.19,2.83,12.19,10.09s-5.22,10.09-12.19,10.09H402.89Z" fill="#fff"/><polygon points="584.56 206.8 526.91 206.8 526.91 140.62 489.37 140.62 489.37 234.78 584.56 234.78 584.56 206.8" fill="#fff"/><path d="M637.53,140.62l-46.66,94.16h38.88l6.57-14.8H679l6.57,14.8h39.42l-46.66-94.16Zm9,56.49,11.13-25,11.13,25Z" fill="#fff"/><polygon points="761.57 175.05 741.6 140.62 700.57 140.62 742.67 203.84 742.67 234.78 780.21 234.78 780.21 203.84 822.31 140.62 781.42 140.62 761.57 175.05" fill="#fff"/><polygon points="402.88 91.73 445.78 91.73 445.78 125.09 483.31 125.09 483.31 30.93 445.78 30.93 445.78 62.95 402.88 62.95 402.88 30.93 365.35 30.93 365.35 125.09 402.88 125.09 402.88 91.73" fill="#fff"/><path d="M535.06,110.29h42.62l6.57,14.8h39.41L577,30.93H536.26l-46.65,94.16h38.88Zm21.31-47.88,11.13,25H545.24Z" fill="#fff"/><polygon points="666.15 73.84 714.95 125.09 747.92 125.09 747.92 30.93 711.73 30.93 711.73 76.26 669.64 30.93 629.96 30.93 629.96 125.09 666.15 125.09 666.15 73.84" fill="#fff"/><path d="M882,78c0-30-23.59-47.08-60.59-47.08H764.54v94.16h56.84C858.38,125.09,882,108,882,78Zm-79.89,19.1V58.91h16.08c16.09,0,25.47,7,25.47,19.1s-9.38,19.1-25.47,19.1Z" fill="#fff"/><polygon points="365.35 273.62 374.14 273.62 374.14 290.25 376.38 290.25 376.38 273.62 385.2 273.62 385.2 271.6 365.35 271.6 365.35 273.62" fill="#fff"/><polygon points="411.62 279.72 396.28 279.72 396.28 271.6 394.04 271.6 394.04 290.25 396.28 290.25 396.28 281.85 411.62 281.85 411.62 290.25 413.86 290.25 413.86 271.6 411.62 271.6 411.62 279.72" fill="#fff"/><polygon points="427.45 281.8 440.61 281.8 440.61 279.72 427.45 279.72 427.45 273.68 442.98 273.68 442.98 271.6 425.21 271.6 425.21 290.25 443.24 290.25 443.24 288.17 427.45 288.17 427.45 281.8" fill="#fff"/><path d="M476.68,271c-7.09,0-11.35,3.81-11.35,9.88s4.26,9.88,11.35,9.88S488,287,488,280.92,483.76,271,476.68,271Zm0,17.69c-5.49,0-9.06-2.8-9.06-7.81s3.57-7.8,9.06-7.8,9.05,2.79,9.05,7.8S482.16,288.73,476.68,288.73Z" fill="#fff"/><polygon points="515.62 286.97 500.41 271.6 497.99 271.6 497.99 290.25 500.17 290.25 500.17 274.45 515.84 290.25 517.81 290.25 517.81 271.6 515.62 271.6 515.62 286.97" fill="#fff"/><polygon points="531.39 281.8 544.55 281.8 544.55 279.72 531.39 279.72 531.39 273.68 546.92 273.68 546.92 271.6 529.15 271.6 529.15 290.25 547.19 290.25 547.19 288.17 531.39 288.17 531.39 281.8" fill="#fff"/><rect x="555.1" y="279.98" width="11.37" height="1.92" fill="#fff"/><polygon points="594.61 279.72 579.26 279.72 579.26 271.6 577.03 271.6 577.03 290.25 579.26 290.25 579.26 281.85 594.61 281.85 594.61 290.25 596.85 290.25 596.85 271.6 594.61 271.6 594.61 279.72" fill="#fff"/><path d="M615.79,271.6l-10.26,18.64H608l2.71-5H623.3l2.72,5h2.53L618.29,271.6Zm-4,11.61,5.19-9.56,5.2,9.56Z" fill="#fff"/><polygon points="654.87 286.97 639.65 271.6 637.23 271.6 637.23 290.25 639.41 290.25 639.41 274.45 655.08 290.25 657.05 290.25 657.05 271.6 654.87 271.6 654.87 286.97" fill="#fff"/><path d="M677.46,271.6H668.4v18.64h9.06c6.82,0,11.18-3.59,11.18-9.32S684.28,271.6,677.46,271.6Zm-.16,16.57h-6.66V273.68h6.66c5.3,0,9.05,2.47,9.05,7.24S682.6,288.17,677.3,288.17Z" fill="#fff"/><polygon points="700.85 281.8 714 281.8 714 279.72 700.85 279.72 700.85 273.68 716.38 273.68 716.38 271.6 698.61 271.6 698.61 290.25 716.64 290.25 716.64 288.17 700.85 288.17 700.85 281.8" fill="#fff"/><path d="M735.48,271.6h-9.06v18.64h9.06c6.82,0,11.18-3.59,11.18-9.32S742.3,271.6,735.48,271.6Zm-.16,16.57h-6.66V273.68h6.66c5.3,0,9,2.47,9,7.24S740.62,288.17,735.32,288.17Z" fill="#fff"/><path d="M780.15,282.63h8.47v2.42c-1.38,2.58-4.42,3.68-8.12,3.68-5.7,0-9.27-2.64-9.27-7.81s3.54-7.8,9.11-7.8c3.38,0,5.86,1.06,7.54,3.17l1.94-1.36c-1.86-2.19-4.93-3.89-9.48-3.89-7.14,0-11.41,3.81-11.41,9.88s4.27,9.88,11.49,9.88c5.16,0,8.89-2.18,10.44-5.08v-5.17H780.15Z" fill="#fff"/><path d="M807.8,271.6l-10.25,18.64H800l2.72-5h12.57l2.72,5h2.53L810.31,271.6Zm-4,11.61,5.2-9.56,5.19,9.56Z" fill="#fff"/><polygon points="841.05 283 831.7 271.6 829.25 271.6 829.25 290.25 831.43 290.25 831.43 274.74 840.91 286.22 841.07 286.22 850.56 274.74 850.56 290.25 852.79 290.25 852.79 271.6 850.4 271.6 841.05 283" fill="#fff"/><polygon points="866.38 288.17 866.38 281.8 879.54 281.8 879.54 279.72 866.38 279.72 866.38 273.68 881.91 273.68 881.91 271.6 864.14 271.6 864.14 290.25 882.18 290.25 882.18 288.17 866.38 288.17" fill="#fff"/></svg>