<svg xmlns="http://www.w3.org/2000/svg" viewBox="0 0 707.71 259.19"><path d="M390.7,68.06a50.4,50.4,0,0,1-1.89-17.72,34.84,34.84,0,0,1,2.49-11.45,11.6,11.6,0,0,1,5.19-5.73c3.44-1.69,8.22-1.15,10.11,2.09a11.63,11.63,0,0,1,1.21,5.86c.07,5.46-2,10.85-1.41,16.24.2,1.55.94,4.78,2.29,5.46s3-1,3.77-2.36c1.48-2.5,1.48-5.53,2.16-8.29a12.64,12.64,0,0,1,1.68-4.11c2.36-3.37,7.41-3.1,9.84.27a8.47,8.47,0,0,1,1.08,2.22c1.07,3,1.68,6.27,2.89,9.23a7.22,7.22,0,0,0,1.62,2.56,2.49,2.49,0,0,0,2.43.41c2-.81,2.22-5.06,2.29-7.28.13-3.57-.68-7.14-.95-10.71A17.41,17.41,0,0,1,436,38a8.16,8.16,0,0,1,2-3.57c2.49-2.29,8-2.83,11-1.15a9.82,9.82,0,0,1,4,6.07c1.48,5.25,1.08,11,.54,16.44a66.81,66.81,0,0,1-2.22,12.53A25,25,0,0,1,447.77,76a18.76,18.76,0,0,1-6.61,5.73,15.79,15.79,0,0,1-8,2,11,11,0,0,1-4.18-1,12.17,12.17,0,0,1-3.64-2.83,20.17,20.17,0,0,1-4.45-8.15c-1.21,3.44-2.76,6.94-5.46,9.43a11.83,11.83,0,0,1-5.05,2.5,13.49,13.49,0,0,1-6.13-.14,16.16,16.16,0,0,1-7.88-4.78A27.49,27.49,0,0,1,390.7,68.06Zm69.4-19.34c.6.27,1.61.74,1.61,1.42,0,4.31-.33,8.69-.74,13-.06,1.48-1,9.7-1,11.12a10.67,10.67,0,0,0,1.15,5.8,9.92,9.92,0,0,0,4.58,3.5c4.38,1.75,9.3,1.62,13.95,1.48s9.57-.4,14.08-1.82a8.86,8.86,0,0,0,5.12-4.11c1.21-2.49,1.35-5.93-.13-8.22a5.31,5.31,0,0,0-2.5-2,10.77,10.77,0,0,0-4.17-.13c-4.05.4-8.09,1.75-12.27,1.68a3.34,3.34,0,0,1-2.22-.81,4,4,0,0,1-.47-2.69c.13-1,.47-2,.6-3,2.36.07,4.72.14,7.08,0a14.45,14.45,0,0,0,3.84-.4,4,4,0,0,0,2.22-2.9c.54-2.49.2-5.59-2.29-6.26A15.88,15.88,0,0,0,485.9,54c-2.56-.07-5.12.13-7.75.2.07-1.68.41-3.3.41-5a100.75,100.75,0,0,0,12.06-.47,14.32,14.32,0,0,0,6-1.88,8.34,8.34,0,0,0,3.1-4.32c.67-2.29.4-6.73-1.49-8.22a4.57,4.57,0,0,0-1.48-.74c-2.9-.94-16.44-.81-19.61-.87-4,0-8.22-.41-12.26.33a13,13,0,0,0-6.94,3C454.3,39.63,455.45,46.7,460.1,48.72ZM519.05,51a7.39,7.39,0,0,0,4.11,3.7,17.72,17.72,0,0,0,8.63.27c-.14,2-.54,13.07-.54,15a55,55,0,0,0,.14,7.48,8.72,8.72,0,0,0,2,5.12,8.24,8.24,0,0,0,4.78,2.16,23.8,23.8,0,0,0,4.92.06,19.45,19.45,0,0,0,5.66-.94,6.21,6.21,0,0,0,3.3-2.49,11.26,11.26,0,0,0,.88-5.19c0-2.49-.27-17.86-.2-20.35,2.76.2,9.23-.2,11-2.29a6.7,6.7,0,0,0,1.42-3.3c.6-3.84.8-12.54-2-15.23-2-1.95-5.12-2.43-8-2.7a116,116,0,0,0-11.79.07c-4,0-8-.6-12-.47a22.05,22.05,0,0,0-8.09,1.42,7.23,7.23,0,0,0-3.17,2.69,17.82,17.82,0,0,0-2.29,10.65A14.21,14.21,0,0,0,519.05,51Zm102,14.69a9.26,9.26,0,0,0,1.21-4.59,7.11,7.11,0,0,0-.61-4,3.54,3.54,0,0,0-1.28-1.21,6.55,6.55,0,0,0-3.43-.75c.07-1.21.07-8.35.07-9.56a34.22,34.22,0,0,0-.75-7.89,6.69,6.69,0,0,0-1-2.15c-1.95-2.9-7.68-2.9-11-2a5.06,5.06,0,0,0-2.89,2.36c-1,1.75-1,3.91-1,5.93-.07,1.35-.13,9.64-.13,11-2.43.14-4.85.07-7.35.14.07-1.08.27-7.48.27-8.56a24.73,24.73,0,0,0-.81-7.41,6.88,6.88,0,0,0-2.76-3.57,11.58,11.58,0,0,0-6.4-1.62,19.63,19.63,0,0,0-5.59.81A6.63,6.63,0,0,0,574,34.91a7,7,0,0,0-1.28,3.84c-.27,4.58.47,9.16.47,13.75a13.05,13.05,0,0,0-3.64,0,4,4,0,0,0-1.68.87c-2.3,2-2.23,7-1.15,9.84a4.64,4.64,0,0,0,2.09,2.16,9.14,9.14,0,0,0,4,.54c-.13,2-.74,12-.4,14a5.6,5.6,0,0,0,1.21,2.83c2.49,3,9,3.1,12.6,1.55a7.68,7.68,0,0,0,3.64-3.37,16.78,16.78,0,0,0,1.35-4.85c.4-3.37.47-6.81.54-10.17,2.89.06,5.72.2,8.55.06.14,3.84-.33,7.68-.2,11.52a8.09,8.09,0,0,0,1.48,5.13c2.29,2.76,7.75,3.43,10.92,1.88a5.6,5.6,0,0,0,2.09-1.68,8.42,8.42,0,0,0,1.41-4.58c.27-3.51-.33-7.08-.54-10.58,0-.21.27-.07.47-.07a10.06,10.06,0,0,0,2.43-.27A4.31,4.31,0,0,0,621.07,65.64Zm35.1-16.92a14.32,14.32,0,0,0,6-1.88,8.34,8.34,0,0,0,3.1-4.32c.67-2.29.4-6.73-1.48-8.22a4.67,4.67,0,0,0-1.48-.74c-2.9-.94-16.45-.81-19.61-.87-4.05,0-8.22-.41-12.27.33a13,13,0,0,0-6.94,3c-3.63,3.64-2.49,10.71,2.16,12.73.61.27,1.62.74,1.62,1.42,0,4.31-.34,8.69-.74,13-.07,1.48-1,9.7-1,11.12a10.58,10.58,0,0,0,1.14,5.8,9.92,9.92,0,0,0,4.58,3.5c4.38,1.75,9.3,1.62,14,1.48s9.57-.4,14.08-1.82a8.86,8.86,0,0,0,5.12-4.11c1.22-2.49,1.35-5.93-.13-8.22a5.29,5.29,0,0,0-2.49-2,10.82,10.82,0,0,0-4.18-.13c-4,.4-8.09,1.75-12.26,1.68a3.35,3.35,0,0,1-2.23-.81,4,4,0,0,1-.47-2.69c.14-1,.47-2,.61-3,2.36.07,4.71.14,7.07,0a14.45,14.45,0,0,0,3.84-.4,4,4,0,0,0,2.23-2.9c.54-2.49.2-5.59-2.3-6.26a15.76,15.76,0,0,0-2.62-.34c-2.56-.07-5.12.13-7.75.2.07-1.68.4-3.3.4-5A100.67,100.67,0,0,0,656.17,48.72ZM437.66,138.45a10.06,10.06,0,0,0,2.43-.27,4.23,4.23,0,0,0,2.62-1.69,9.11,9.11,0,0,0,1.22-4.58,7.28,7.28,0,0,0-.61-4,3.65,3.65,0,0,0-1.28-1.22,6.66,6.66,0,0,0-3.44-.74c.07-1.21.07-8.35.07-9.57a34.74,34.74,0,0,0-.74-7.88,7.07,7.07,0,0,0-1-2.16c-2-2.89-7.68-2.89-11.05-2a5,5,0,0,0-2.9,2.36c-.94,1.75-.94,3.91-.94,5.93-.07,1.34-.14,9.63-.14,11-2.42.14-4.85.07-7.34.14.07-1.08.27-7.48.27-8.56a25,25,0,0,0-.81-7.41,6.85,6.85,0,0,0-2.76-3.57,11.58,11.58,0,0,0-6.4-1.62,19.7,19.7,0,0,0-5.6.81,6.71,6.71,0,0,0-3.57,2.29,7.17,7.17,0,0,0-1.28,3.84c-.27,4.58.47,9.16.47,13.74a13.44,13.44,0,0,0-3.64,0,4.18,4.18,0,0,0-1.68.88c-2.29,2-2.22,7-1.15,9.84a4.67,4.67,0,0,0,2.09,2.15,9.06,9.06,0,0,0,4.05.54c-.14,2-.75,12-.41,14a5.69,5.69,0,0,0,1.21,2.83c2.5,3,9,3.1,12.6,1.55a7.69,7.69,0,0,0,3.64-3.37,16.47,16.47,0,0,0,1.35-4.85c.41-3.37.47-6.81.54-10.18,2.9.07,5.73.2,8.56.07.13,3.84-.34,7.68-.2,11.52a8,8,0,0,0,1.48,5.12c2.29,2.77,7.75,3.44,10.91,1.89a5.53,5.53,0,0,0,2.09-1.69,8.32,8.32,0,0,0,1.42-4.58c.27-3.5-.34-7.07-.54-10.58C437.19,138.31,437.46,138.45,437.66,138.45ZM474,142a2.57,2.57,0,0,0-.27-1.28c-.54-.61-2.76-.74-3.57-.74a19.92,19.92,0,0,0-5.33.61,3.89,3.89,0,0,0-1.55.6,5.19,5.19,0,0,0-.4,1.75c-.2,1.28-.67,6.81-1.21,8a5.43,5.43,0,0,1-3,2.63c-2.9,1-8.69,0-10.91-2.16-3.37-3.16-1.42-12.66-.27-17.18A71.86,71.86,0,0,1,454,117.56a35.46,35.46,0,0,1,8-10.65c3.3-2.76,8.36-4.31,12.53-3.23a10.69,10.69,0,0,1,5,3,34,34,0,0,1,7,12.8c2.22,6.67,3.16,13.75,4.11,20.76a21.88,21.88,0,0,1,.33,5.59,14,14,0,0,1-1.34,4.31,7.93,7.93,0,0,1-3.64,3.64c-5.19,2.56-11.86.07-12.33-5.73C473.57,146.06,474,144,474,142Zm.74-12.33a4.87,4.87,0,0,0,.2-3c-.34-2.9-2.22-6.41-5.12-6.41-3.17,0-5.39,4-5.86,7.08a6.3,6.3,0,0,0,0,2.29c.07.54.33,1.21.81,1.21,2.83-.13,5.79.27,8.55-.4A1.94,1.94,0,0,0,474.72,129.62ZM497.16,113a19.25,19.25,0,0,0-.88,4c-.81,4.58-1.89,25.6-1.35,30.19a14,14,0,0,0,2.23,6.6c2.49,3.5,8.22,4.58,12,2.56a9,9,0,0,0,4-5.05c1.28-4.11.94-8.7.33-12.94a91.13,91.13,0,0,0,5,9.1,20.13,20.13,0,0,0,5.73,6.13,11.34,11.34,0,0,0,13.4-.88c2.9-2.42,4.65-6.2,5.87-9.77,1.75-5,2.22-10.31,2.62-15.56a69.19,69.19,0,0,0-.06-10.58,38.52,38.52,0,0,0-1.42-8.76,8.83,8.83,0,0,0-1.82-3.44,11.39,11.39,0,0,0-6.4-3.23,11,11,0,0,0-6.87.87,7.24,7.24,0,0,0-3,2.7,12.5,12.5,0,0,0-1.28,5.66,37.11,37.11,0,0,0,1.22,8.62c1.07,4.65,2.35,9.3,2.22,14,0,1.14-.81,3.23-1.82,3.64a2.43,2.43,0,0,1-2.22-.41,7.45,7.45,0,0,1-2.09-2.56c-1.08-2.56-6.47-17.31-7.48-19.88a15.81,15.81,0,0,0-2.63-4.78,10.53,10.53,0,0,0-5-3.3,7.2,7.2,0,0,0-5.26.74A11.21,11.21,0,0,0,497.16,113ZM551.6,137q-.4-9.69,0-19.4a32.07,32.07,0,0,1,1.08-7.21,10.21,10.21,0,0,1,1.88-3.84,7.83,7.83,0,0,1,2.83-2,21.37,21.37,0,0,1,8.49-1.41,50.83,50.83,0,0,1,10,1.28,22.37,22.37,0,0,1,9.5,4.65,27.54,27.54,0,0,1,8.9,14.69,34.88,34.88,0,0,1,.87,6.53,25.3,25.3,0,0,1-1.34,10.78,23.48,23.48,0,0,1-4.18,7.35,19.9,19.9,0,0,1-8.63,5.86c-3.5,1.08-7.34,1.15-11,1.48a69.89,69.89,0,0,1-10.64-.13,23.08,23.08,0,0,1-6.81-1.21c-3.7-1.55-5.25-7.08-4.44-11a13.44,13.44,0,0,1,1.75-4.51A5.47,5.47,0,0,1,551.6,137Zm18,.81c2.83.61,6.33.21,8.49-1.68a7.47,7.47,0,0,0,1.68-2.43c3.17-7-2.09-15.16-9.63-14.15A59.12,59.12,0,0,0,569.59,137.77ZM435.37,185.18a25.73,25.73,0,0,1,1.21,15.3,24.08,24.08,0,0,1-2.9,7.68,12.91,12.91,0,0,1-3.16,3.5,20.08,20.08,0,0,1-8.83,3.71c-3,.54-6.06.13-9-.2a17.72,17.72,0,0,1-.81,6.8,6.61,6.61,0,0,1-2.42,3.44c-2.77,1.89-8.83,2-11.66.2a8.74,8.74,0,0,1-3.44-5.19,32.4,32.4,0,0,1-.87-9.57,128.13,128.13,0,0,1,1.75-18.93,18.62,18.62,0,0,1-3.44-.61c-2.22-.87-4.11-4.51-4.11-6.87a11.12,11.12,0,0,1,1.62-5.19,8.25,8.25,0,0,1,3.91-3,29.17,29.17,0,0,1,7.88-2.16,48.6,48.6,0,0,1,9.91-.67c3.3.2,6.67.2,9.9.67a17.75,17.75,0,0,1,14.49,11.05Zm-12.67,7.68a6.38,6.38,0,0,0-2.76-2.89A15,15,0,0,0,412,189c-.74,3.84-.41,7.82-.74,11.73,3.23,1.08,8.82.54,10.85-2.23A6.21,6.21,0,0,0,422.7,192.86Zm53,16.38a6.76,6.76,0,0,0-3.64-1.75,13.72,13.72,0,0,0-5.52.27,37.07,37.07,0,0,0-9.71,4.44,54.37,54.37,0,0,1,.95-6.53,153.08,153.08,0,0,1,4.38-16.58,25.42,25.42,0,0,0,1.34-7.07,8.35,8.35,0,0,0-1.07-4.38c-2.3-3.71-9-4.79-13.14-3.51a12.51,12.51,0,0,0-5.87,3.51c-1.68,2-2.35,4.71-2.83,7.27a76.25,76.25,0,0,0-.8,14.09c0,1.61,0,3.23.06,4.85.14,2.15.95,12.93,1.49,15.09.2.88.26,1.75.47,2.63a6.17,6.17,0,0,0,1.75,3.23,7.14,7.14,0,0,0,3.77,1.69,69.73,69.73,0,0,0,7.35.47c4.58.13,9.16.47,13.67-.27,3-.47,6.27-1.62,8.16-4s2.22-6.2,1.48-9.23A8.93,8.93,0,0,0,475.73,209.24Zm49,1.88a22.45,22.45,0,0,1,.34,5.6,14,14,0,0,1-1.35,4.31,7.93,7.93,0,0,1-3.64,3.64c-5.19,2.56-11.86.06-12.33-5.73-.13-2,.27-4.11.27-6.13a2.57,2.57,0,0,0-.27-1.28c-.54-.61-2.76-.74-3.57-.74a20.21,20.21,0,0,0-5.32.6,3.94,3.94,0,0,0-1.55.61,5.15,5.15,0,0,0-.41,1.75c-.2,1.28-.67,6.81-1.21,8a5.41,5.41,0,0,1-3,2.63c-2.9,1-8.7,0-10.92-2.16-3.37-3.17-1.41-12.67-.27-17.18a71.45,71.45,0,0,1,6.54-16.64,35.46,35.46,0,0,1,8-10.65c3.3-2.76,8.35-4.31,12.53-3.23a10.57,10.57,0,0,1,5,3,33.82,33.82,0,0,1,7,12.8C522.9,197,523.84,204.12,524.78,211.12ZM509,197.51c-.33-2.89-2.22-6.4-5.12-6.4-3.16,0-5.39,4-5.86,7.08a6.77,6.77,0,0,0,0,2.29c.07.54.34,1.21.81,1.21,2.83-.13,5.8.27,8.56-.4a1.92,1.92,0,0,0,1.41-.81A4.9,4.9,0,0,0,509,197.51Zm57.48-23.85a13.32,13.32,0,0,0-5.52-1.35,6.65,6.65,0,0,0-3.37.95,15.25,15.25,0,0,0-4.65,5.12,98.58,98.58,0,0,0-5.46,10.31c-.07.2-.07-.14-.14-.27-.6-1.22-3.77-8.7-4.38-9.91-1-2-2.56-4.18-4.71-4.85a10.81,10.81,0,0,0-5.06-.07,20.23,20.23,0,0,0-6.13,2.09,5.72,5.72,0,0,0-3,3.24,8.38,8.38,0,0,0,.54,5.12,60.16,60.16,0,0,0,3.91,8.76,55.38,55.38,0,0,0,4.58,7.27c.67.88,4.65,5.53,5.46,6.34a85.31,85.31,0,0,0-4.79,9.56,11.49,11.49,0,0,0-1.28,4.86,4,4,0,0,0,1.35,2.89,11.19,11.19,0,0,0,4,2.16,27.93,27.93,0,0,0,6.61,1.42,16.69,16.69,0,0,0,5.19-.21,5.49,5.49,0,0,0,2.49-1.28,11,11,0,0,0,2.42-4.11c.75-2,1.42-4,2.09-6.06A144.89,144.89,0,0,1,565.08,197c1.81-3.37,3.9-6.53,5.72-9.9A13.16,13.16,0,0,0,573,180.8a6,6,0,0,0-1.55-4A14.44,14.44,0,0,0,566.49,173.66Zm41.57,16.78a14.19,14.19,0,0,0,6-1.89,8.36,8.36,0,0,0,3.1-4.31c.67-2.29.4-6.74-1.48-8.22a4.29,4.29,0,0,0-1.48-.74c-2.9-.95-16.45-.81-19.61-.88-4.05,0-8.22-.4-12.26.34a12.89,12.89,0,0,0-7,3c-3.63,3.64-2.49,10.72,2.16,12.74.61.27,1.62.74,1.62,1.41,0,4.32-.34,8.69-.74,13-.07,1.48-1,9.7-1,11.11a10.54,10.54,0,0,0,1.14,5.8,9.86,9.86,0,0,0,4.58,3.5c4.38,1.76,9.3,1.62,14,1.49s9.57-.41,14.08-1.82a8.93,8.93,0,0,0,5.12-4.11c1.22-2.5,1.35-5.93-.13-8.22a5.25,5.25,0,0,0-2.49-2,11,11,0,0,0-4.18-.13c-4,.4-8.09,1.75-12.26,1.68a3.34,3.34,0,0,1-2.23-.8,4,4,0,0,1-.47-2.7c.14-1,.47-2,.61-3,2.36.07,4.71.13,7.07,0a14.45,14.45,0,0,0,3.84-.41,4,4,0,0,0,2.23-2.89c.54-2.5.2-5.6-2.29-6.27a17.18,17.18,0,0,0-2.63-.34c-2.56-.06-5.12.14-7.75.21.07-1.69.4-3.31.4-5A102.79,102.79,0,0,0,608.06,190.44Zm55.73,25.87a6.48,6.48,0,0,1-.14,3.57A8.68,8.68,0,0,1,655,226a13.85,13.85,0,0,1-7.21-3,34.89,34.89,0,0,1-7.89-8.42,22.39,22.39,0,0,1-1,6.67c-1.68,5-8.08,6.13-12.53,3.1a9.72,9.72,0,0,1-3.91-5.93,50.3,50.3,0,0,1-.74-10A111.28,111.28,0,0,1,623,189a7.86,7.86,0,0,1-1.75-11.46,8.57,8.57,0,0,1,3.17-2.36,21.48,21.48,0,0,1,6.06-1.61,47.77,47.77,0,0,1,17.52.4c3.64.81,7.35,2,10.24,4.38a15.17,15.17,0,0,1,5.06,8.49,18.67,18.67,0,0,1-1.48,12.06,14.42,14.42,0,0,1-3.71,4.72,16.81,16.81,0,0,1-6.54,3.1c2.83,1.88,6,3.23,8.7,5.25A9.45,9.45,0,0,1,663.79,216.31Zm-14.62-24.66a3,3,0,0,0-.88-2.22,12.34,12.34,0,0,0-4.18-2.43,19.26,19.26,0,0,0-4.78-.34,65.72,65.72,0,0,0,0,10.31,12.19,12.19,0,0,0,6.8-.47A5.82,5.82,0,0,0,649.17,191.65Zm54.37,9.43a12.56,12.56,0,0,0-3.23-2.08c-3-1.28-6.27-1.76-9.37-2.77a6.58,6.58,0,0,1-2.63-1.34,2.36,2.36,0,0,1-.4-3.24,3,3,0,0,1,1.08-.74,11.91,11.91,0,0,1,5-1,43,43,0,0,1,6.6,1.08c5,.87,7.69-4.65,6.94-9.71a7.86,7.86,0,0,0-1.88-4.17,10.36,10.36,0,0,0-4.52-2.36,40.21,40.21,0,0,0-12.66-1.42,37.62,37.62,0,0,0-13.62,2.5,12.92,12.92,0,0,0-3.84,2.22,12.49,12.49,0,0,0-3.77,5.53,14.52,14.52,0,0,0,.88,11.25,12,12,0,0,0,4.31,4.31c4.72,2.63,10.24,3.64,15.29,5.53a13,13,0,0,1,3.17,1.75c1.42,1,2.76,2.76,1.82,4.17a4.34,4.34,0,0,1-4.11,1.49,5.91,5.91,0,0,1-2.16-1.49,47.07,47.07,0,0,0-3.57-3.77c-3.77-3-10.37-2.22-13.94,1-2.5,2.29-2.5,7.75-1.08,10.85a11.79,11.79,0,0,0,4.85,5.26,24.92,24.92,0,0,0,8.08,2.69,30.64,30.64,0,0,0,13.95-1.14,17.46,17.46,0,0,0,6.27-3.24,16.67,16.67,0,0,0,5.66-10.91,15,15,0,0,0-1.15-7.28A8.85,8.85,0,0,0,703.54,201.08Z" fill="#fff"/><path d="M184.21,103.65a322.79,322.79,0,0,1-13,71c-6.39,21.13-13.09,40.23-21.71,53.75-2.1,3-18.12,28.32-55,30.66-36.21,2.29-56.8-23.69-59.72-27.85C23.42,215,1.53,175.84.08,121.17-1.14,75.5,11.9,41.41,21.58,22.9,34.11,1.44,58.7-4.7,79.09,3.49c18.86,7.57,28.68,25,28.24,44.86a201.14,201.14,0,0,1-7.25,36.33c-7.22,24.15-9.69,34.05-12.17,51.59a16.81,16.81,0,0,0,11.23,17.51c6.48,2.31,14.68.39,18.59-4.87a254.56,254.56,0,0,0,12.9-26.34c4.31-10.16,4.77-13.83,10.27-28.48,4.25-9.59,13.72-15.27,24.25-13.57C177,82.44,184.36,92.08,184.21,103.65ZM301.72,22.9C289.19,1.44,264.61-4.7,244.21,3.49c-18.86,7.57-28.68,25-28.24,44.86a202.91,202.91,0,0,0,7.25,36.33c7.22,24.15,9.69,34.05,12.18,51.59a16.82,16.82,0,0,1-11.24,17.51,17.87,17.87,0,0,1-9.81.51v0c-6.91-1.74-10.47-7.81-10.61-8.06a6.83,6.83,0,0,0-6.25-4.28c-5.56,0-6.53,5.09-6.66,5.76a350.61,350.61,0,0,1-13.56,50.88,49.35,49.35,0,0,0-2.54,14.35c0,28.55,25.16,40.18,39.62,43.94v0c9.78,2.49,50.11,8.66,74.16-25.6,11.38-16.2,33.26-55.36,34.71-110C324.44,75.5,311.4,41.41,301.72,22.9Z" fill="#fd5e02"/></svg>