<svg xmlns="http://www.w3.org/2000/svg" viewBox="0 0 187.92 183.88"><path d="M187.92,70.15c-.32-6.7-4.91-11-8.26-14.18-.77-.73-1.51-1.43-2.14-2.09l-.05-.06c-3.31-3.37-6.67-6.72-9.72-9.74a29.58,29.58,0,0,0-.25-7.93,16.88,16.88,0,0,0-6.22-10.67c-3.05-3.09-6.17-6.21-9.29-9.29-2.41-2.45-4.89-4.94-7.38-7.38-5.93-6.3-16.39-7-20.62-7a33.22,33.22,0,0,0-14.2,2.78l-.33.16-.31.21C103.26,8.91,100.65,15.1,99,21l-1-1c-4.52-4.56-8.61-8.68-12.83-12.81l0,0C80.43,2.67,72.23,0,63.16,0a34.45,34.45,0,0,0-14.1,2.7l-.29.14L48.5,3C39.08,8.76,36.89,20.5,35.13,29.93c-.21,1.13-.41,2.24-.63,3.29l-.6,0c-1.84-.12-3.74-.25-5.69-.25a25.46,25.46,0,0,0-11.07,2.16l-.08,0-.07,0a17.75,17.75,0,0,0-6.89,6.45l-.18.3-.15.32c-.44,1-10.66,23.29-.58,32.09,2.8,2.85,5.65,5.7,8.45,8.49A21.32,21.32,0,0,0,9,87l-.24.19-.21.21C4,91.94-.4,101.09,0,109.72a17.11,17.11,0,0,0,5.76,12.56c4.06,4.09,8.19,8.21,12.19,12.2l2.16,2.16c-1.36,6.21-1.81,11.42-.3,16,1.62,4.92,4.93,8.11,9.51,12.53,1.33,1.29,2.85,2.75,4.48,4.41l.05,0c.73.73,1.49,1.49,2.21,2.23,1.27,1.27,2.57,2.58,3.9,3.87,3.87,5.46,11.06,8.11,22,8.11a123,123,0,0,0,13.1-.89l.85-.1.12,0c5.47-.85,9.74-4.11,12.68-9.7a33,33,0,0,0,1.94-4.54c2.07,2.08,4.19,4.21,6.32,6.29,4.41,5.72,11.11,8.5,20.46,8.5a95.28,95.28,0,0,0,9.95-.68l.79-.08.14,0c4-.61,8.1-1.59,11.47-4.62l.17-.14.15-.16c5.13-5.39,6.67-16.2,8.16-26.65.28-1.93.55-3.8.82-5.48,2.4.23,5.12.49,7.8.49a26.21,26.21,0,0,0,9.19-1.43,16.28,16.28,0,0,0,8.27-6.7l.19-.3.15-.32c1.73-3.75,7.39-20.58,1.12-28.35l-.18-.23-.21-.21c-2.33-2.35-4.71-4.72-7-7,5.12-.45,11.07-2.15,14.89-8,3.07-4.7,4.42-11.36,4.65-23v-.38Z" fill="#092437"/><path d="M28.31,156.11a11.87,11.87,0,0,1-3.47-6.48c-.69-4.39.23-9,1.16-13.41,1.38-5.09,2.77-10.18,4.16-15.5-6,.69-12.49,1.15-18-1.16a10.34,10.34,0,0,1-6.25-8.1C4.71,105.91,8.18,95,12.58,91.34a16.79,16.79,0,0,1,7.17-3.24c4.63-.92,9.25-.23,13.88,0,.46-2.08,3-13.88,3.47-15.73-4.63-.23-19.89.92-23.6-1.85a7.26,7.26,0,0,1-2.77-3.7c-1.16-4.86,1.62-18,4.16-22.21a12.12,12.12,0,0,1,4.63-4.4,20.25,20.25,0,0,1,9-1.62c3.47,0,6.94.47,10.41.47A175,175,0,0,1,44,18c1.16-4.17,3.7-8.33,7.4-10.18,6-3,13.42-2.32,19.9-1.16,4.16.69,8.79,2.31,10.87,6,2.31,4.4.92,10.18-.23,15-.7,3.47-1.85,6.94-2.78,10.18,2.78,0,18.74-.46,21.52-.23,1.15-4.86,2.31-9.49,3.47-14.11,1.39-5.09,3.47-11.11,8.09-13.88,5.09-3.24,18.51-2.32,24.06,0a11.42,11.42,0,0,1,5.32,4.62c1.85,3.47,1.62,7.87,1.16,11.8A94.16,94.16,0,0,1,140,40.21c3.47.23,16.2,1.39,19.2,3.47,2.32,1.62,3.7,4.86,3.94,7.64.46,6.24-1.39,19.43-6.25,22.9a14.21,14.21,0,0,1-7.4,2.54,99.75,99.75,0,0,1-14.34-.69c-1.16,4.4-2.32,8.79-3.24,13.19l10.41.69c3.47.23,7.63.7,9.94,3.47,1.85,2.08,1.85,5.78,1.39,8.56-.46,4.86-1.16,9.72-3.24,13.88-1.39,2.78-4.85,4.63-8.09,5.09-5.56.69-11.34,0-16.89-.46-.69,3.7-4.16,24-5.09,27.52-.69,2.55-1.62,5.09-3.47,6.71-2.31,2.08-5.55,2.78-8.56,3.24a105.49,105.49,0,0,1-12,.7c-4.16-.24-9.25-1.16-12-4.4-5.55-6.48-.92-25.21,1.39-33.54-4.63,0-9.25,0-13.88-.23-2.31,10.64-2.55,22-7.64,31.69a10.76,10.76,0,0,1-8.09,6C49.59,159.12,33.4,160.27,28.31,156.11ZM91,90.18c1.62-6.24,3.24-12.26,5.09-18.51-6.48.23-13,.23-19.43.7C75,78.15,73.88,83.94,72.72,89.72,78.74,90,85,90,91,90.18Z" fill="#102b3d"/><path d="M115.37,110.62a8.37,8.37,0,0,0-3-1.79,24.37,24.37,0,0,0-5.31-1.21,18.62,18.62,0,0,0-7.32.09,5.34,5.34,0,0,0-3,1.88c-1,1.41-1.25,4-.46,5.26a2.85,2.85,0,0,0,1.4,1,6.73,6.73,0,0,0,2.91.29,41,41,0,0,1,4.78-.34c1,0,2.8.19,3,1.15a1.4,1.4,0,0,1-.4,1.14,4.07,4.07,0,0,1-1.27.74c-1.4.54-2.87.79-4.29,1.27a4.6,4.6,0,0,0-1.06.48c-1.69,1.1-2.25,3.46-1,4.58a4.38,4.38,0,0,0,1.63.81c1.14.34,2.45.37,3.39,1.07.51.38,1.13,1.08.68,1.75s-1.87.93-2.56,1c-2.38.23-4.52-.77-6.88-.79a5.33,5.33,0,0,0-2.64.51,4.19,4.19,0,0,0-1.75,4.6,4.08,4.08,0,0,0,2,2.39,12.89,12.89,0,0,0,4.69,1.21,21.76,21.76,0,0,0,7.73-.72,14.27,14.27,0,0,0,5.06-2.47,9.59,9.59,0,0,0,2.79-3.53,7.14,7.14,0,0,0,.64-2.8,4.82,4.82,0,0,0-.59-2.35,7.74,7.74,0,0,0-3.56-2.61,10.61,10.61,0,0,0,4-2,7.36,7.36,0,0,0,1.58-1.67,6.61,6.61,0,0,0,.85-1.95,7.5,7.5,0,0,0-.07-3.8A6.81,6.81,0,0,0,115.37,110.62Z" fill="#092437"/><path d="M121.91,90.22a4.16,4.16,0,0,0-2.24-.5c-1.12,0-8-.09-9.16-.16.36-1.39.81-4.66,0-5.58a2.27,2.27,0,0,0-1.35-.76c-1.69-.36-5.63-.59-7.11.79a8.16,8.16,0,0,0-2,4c-.51,2-.72,3.93-1.05,5.92s-1,3.93-1.29,5.93a11.55,11.55,0,0,0-.09,4,2.78,2.78,0,0,0,.92,1.57,6.67,6.67,0,0,0,6.56.69,4.42,4.42,0,0,0,2-2,10,10,0,0,0,.93-4.2c.86.09,5.77.41,6.6.43a20.66,20.66,0,0,0,3.34,0,4.31,4.31,0,0,0,2.46-.89A5.24,5.24,0,0,0,122,97.15a13.82,13.82,0,0,0,.54-2.42,10.56,10.56,0,0,0,.16-2.83A2.5,2.5,0,0,0,121.91,90.22Z" fill="#092437"/><path d="M129.35,57.76a3,3,0,0,0-2-.84,33.28,33.28,0,0,0-5,.11c-.09,0,0-.14,0-.25a6.48,6.48,0,0,0,.14-1.31,2.08,2.08,0,0,0-.5-1.46,3.33,3.33,0,0,0-2-.73,3.15,3.15,0,0,0-1.92.26,2.23,2.23,0,0,0-.7.67,4.69,4.69,0,0,0-.71,1.85c-.56-.06-3.9-.18-4.46-.2a15.08,15.08,0,0,0-3.77.27,4.06,4.06,0,0,0-1.11.51c-1.55,1-2.11,4.09-2,5.91a2.19,2.19,0,0,0,.82,1.58,4.72,4.72,0,0,0,2.66.6c.61.06,4.44.22,5.07.24-.19,1.29-.46,2.57-.69,3.88-.49,0-3.42-.25-3.92-.27a10.76,10.76,0,0,0-3.5.31,4.05,4.05,0,0,0-1.91,1.4,7.62,7.62,0,0,0-1.36,3.33,11.46,11.46,0,0,0-.16,2.91,3,3,0,0,0,.71,1.88,2.6,2.6,0,0,0,1.64.72c2.07.2,4.23-.12,6.32,0a7.93,7.93,0,0,0-.36,1.86,1.83,1.83,0,0,0,.23.88c.66,1.19,3,1.23,4.35.72a2.93,2.93,0,0,0,1.19-1,5.79,5.79,0,0,0,.66-2.06,57.31,57.31,0,0,0,6.31.4,3,3,0,0,0,1.42-.58c1.64-1.24,2.36-4.57,2-6.49a3,3,0,0,0-1.14-1.94,6,6,0,0,0-2.08-.78,39.09,39.09,0,0,0-4.61-.43c.34-1.53.7-3,.93-4.51,1.79,0,3.51.3,5.29.28a3.89,3.89,0,0,0,2.52-.7,6.8,6.8,0,0,0,2.08-5.78A2.38,2.38,0,0,0,129.35,57.76Z" fill="#092437"/><path d="M133,42.46a2.51,2.51,0,0,0-1.34-1.41,6.79,6.79,0,0,0-3.12-.58,22.08,22.08,0,0,0,1.12-5.06,11.3,11.3,0,0,0-.75-5.08,5.39,5.39,0,0,0-1.31-1.88,8.9,8.9,0,0,0-3.36-1.83,10.89,10.89,0,0,0-7.5.39,11.9,11.9,0,0,0-4.45,3.4,14.26,14.26,0,0,0-2.39,4.65c-.56,1.82-.9,3.72-1.33,5.57a32.66,32.66,0,0,0-.69,5.53,17.18,17.18,0,0,0,.23,4.38,3.82,3.82,0,0,0,1,2.19,4.13,4.13,0,0,0,2.27,1A4.79,4.79,0,0,0,115,51.57a12.87,12.87,0,0,0,.64-1.87,47.69,47.69,0,0,0,8.7,1.29,13.36,13.36,0,0,0,4.57-.31,5.17,5.17,0,0,0,2.81-1.79C132.85,47.37,133.52,44,133,42.46ZM121.51,41a44.58,44.58,0,0,1-5.48-.63,10.65,10.65,0,0,1,1.29-4.46A4.25,4.25,0,0,1,119,34.4a2.41,2.41,0,0,1,2.63.45C122.73,36.05,122.37,39.2,121.51,41Z" fill="#092437"/></svg>