<svg xmlns="http://www.w3.org/2000/svg">
    <symbol id="icon-x" viewBox="0 0 42.61 43.55">
        <path d="M25.36,18.44,41.23,0H37.47L23.69,16l-11-16H0L16.64,24.21,0,43.55H3.76L18.31,26.64,29.92,43.55H42.61L25.36,18.44Zm-5.15,6L18.53,22,5.11,2.83h5.78L21.71,18.31l1.69,2.41L37.47,40.85H31.69L20.21,24.43Z" fill="currentColor"/>
    </symbol>

    <symbol id="icon-instagram" viewBox="0 0 46.42 46.42">
        <path d="M13.6.16A17,17,0,0,0,8,1.25,11.47,11.47,0,0,0,3.86,3.94,11.28,11.28,0,0,0,1.19,8.05,17.15,17.15,0,0,0,.12,13.69C0,16.16,0,17,0,23.26s0,7.09.16,9.57a17,17,0,0,0,1.09,5.63,11.44,11.44,0,0,0,2.69,4.1,11.28,11.28,0,0,0,4.11,2.67,17.15,17.15,0,0,0,5.64,1.07c2.47.11,3.27.13,9.57.12s7.09,0,9.57-.16a17.06,17.06,0,0,0,5.63-1.08,11.44,11.44,0,0,0,4.1-2.69,11.32,11.32,0,0,0,2.67-4.12,17,17,0,0,0,1.07-5.63c.11-2.48.13-3.27.12-9.57s0-7.09-.16-9.57A16.67,16.67,0,0,0,45.17,8a11.31,11.31,0,0,0-2.68-4.11,11.32,11.32,0,0,0-4.12-2.67A17,17,0,0,0,32.74.12C30.27,0,29.47,0,23.17,0s-7.1,0-9.57.16m.27,42a13.06,13.06,0,0,1-4.31-.79A7.15,7.15,0,0,1,6.89,39.6a7.13,7.13,0,0,1-1.75-2.66,13,13,0,0,1-.8-4.31c-.12-2.45-.14-3.18-.15-9.38s0-6.93.11-9.38a13.06,13.06,0,0,1,.79-4.31A7.29,7.29,0,0,1,6.82,6.89,7.23,7.23,0,0,1,9.49,5.15a12.86,12.86,0,0,1,4.31-.81c2.45-.11,3.18-.14,9.37-.15s6.94,0,9.39.12a12.8,12.8,0,0,1,4.31.79,7.16,7.16,0,0,1,2.67,1.73,7.19,7.19,0,0,1,1.74,2.66,12.92,12.92,0,0,1,.81,4.31c.11,2.45.14,3.18.15,9.38s0,6.93-.12,9.38a12.8,12.8,0,0,1-.79,4.31,7.67,7.67,0,0,1-4.4,4.41,12.78,12.78,0,0,1-4.3.81c-2.45.11-3.18.14-9.38.15s-6.93,0-9.38-.11M32.79,10.81A2.79,2.79,0,1,0,35.57,8h0a2.79,2.79,0,0,0-2.78,2.79M11.29,23.24a11.92,11.92,0,1,0,11.9-11.95,11.92,11.92,0,0,0-11.9,12m4.18,0A7.74,7.74,0,1,1,23.23,31a7.75,7.75,0,0,1-7.76-7.72h0" fill="currentColor"/>
    </symbol>

    <symbol id="icon-discord" viewBox="0 0 53.87 40.83">
        <path d="M45.63,3.42A44.55,44.55,0,0,0,34.52,0a31,31,0,0,0-1.43,2.89,41.77,41.77,0,0,0-12.33,0A30.93,30.93,0,0,0,19.34,0,44.65,44.65,0,0,0,8.22,3.43,44.87,44.87,0,0,0,.23,34h0a44.8,44.8,0,0,0,13.63,6.85,33.59,33.59,0,0,0,2.92-4.71,29,29,0,0,1-4.6-2.2l1.13-.84a32,32,0,0,0,27.25,0,12.7,12.7,0,0,0,1.13.84,28.23,28.23,0,0,1-4.61,2.2A33.59,33.59,0,0,0,40,40.83,44.71,44.71,0,0,0,53.64,34h0A44.85,44.85,0,0,0,45.63,3.42ZM18,27.83a5.15,5.15,0,0,1-4.86-5.37A5.12,5.12,0,0,1,18,17.06a5.1,5.1,0,0,1,4.85,5.4C22.79,25.42,20.69,27.83,18,27.83Zm17.89,0A5.15,5.15,0,0,1,31,22.46a5.12,5.12,0,0,1,4.85-5.4,5.08,5.08,0,0,1,4.84,5.4C40.68,25.42,38.59,27.83,35.88,27.83Z" fill="currentColor"/>
    </symbol>

    <symbol id="icon-telegram" viewBox="0 0 48.96 40.58">
        <path d="M3.37,17.47Q23.08,8.88,29.66,6.14C42.18.93,44.78,0,46.48,0a3,3,0,0,1,1.74.52,1.89,1.89,0,0,1,.65,1.23,7.93,7.93,0,0,1,.07,1.77c-.68,7.13-3.61,24.43-5.11,32.42-.63,3.37-1.87,4.51-3.08,4.62-2.62.24-4.6-1.73-7.14-3.4-4-2.6-6.21-4.22-10.06-6.75-4.45-2.94-1.57-4.55,1-7.18.66-.69,12.2-11.19,12.42-12.14a.9.9,0,0,0-.21-.8,1.06,1.06,0,0,0-.93-.09q-.6.13-19,12.57a8.55,8.55,0,0,1-4.89,1.81,32.51,32.51,0,0,1-7-1.66C2.06,22-.18,21.52,0,20Q.16,18.74,3.37,17.47Z" fill="currentColor"/>
    </symbol>

    <symbol id="icon-tiktok" viewBox="0 0 40.09 45.97">
        <path d="M34.1,9.21A11,11,0,0,1,29.28,2a11.13,11.13,0,0,1-.19-2h-7.9V31.67a6.66,6.66,0,0,1-6.63,6.4,6.58,6.58,0,0,1-3.09-.77,6.64,6.64,0,0,1,3.09-12.52,6.38,6.38,0,0,1,2,.31V17a14.24,14.24,0,0,0-2-.14A14.55,14.55,0,1,0,29.09,31.42V15.36a18.77,18.77,0,0,0,11,3.54V11A10.87,10.87,0,0,1,34.1,9.21Z" fill="currentColor"/>
    </symbol>

    <symbol id="icon-youtube" viewBox="0 0 56.28 39.39">
        <path d="M55.1,6.15a7,7,0,0,0-5-5C45.74,0,28.14,0,28.14,0s-17.6,0-22,1.18a7,7,0,0,0-5,5C0,10.54,0,19.7,0,19.7s0,9.15,1.18,13.54a7,7,0,0,0,5,5c4.39,1.17,22,1.17,22,1.17s17.6,0,22-1.17a7,7,0,0,0,5-5c1.18-4.39,1.18-13.54,1.18-13.54S56.28,10.54,55.1,6.15Zm-32.59,22V11.26L37.13,19.7Z" fill="currentColor"/>
    </symbol>
</svg>